<?xml version="1.0" encoding="UTF-8" standalone="no"?>
<!DOCTYPE svg PUBLIC "-//W3C//DTD SVG 1.1//EN"
 "http://www.w3.org/Graphics/SVG/1.1/DTD/svg11.dtd">
<!-- Generated by graphviz version 2.40.1 (20161225.0304)
 -->
<!-- Title: G Pages: 1 -->
<svg width="1102pt" height="1466pt"
 viewBox="0.00 0.00 1102.00 1466.00" xmlns="http://www.w3.org/2000/svg" xmlns:xlink="http://www.w3.org/1999/xlink">
<g id="graph0" class="graph" transform="scale(1 1) rotate(0) translate(4 1462)">
<title>G</title>
<polygon fill="#ffffff" stroke="transparent" points="-4,4 -4,-1462 1098,-1462 1098,4 -4,4"/>
<!-- 140388011201424 -->
<g id="node1" class="node">
<title>140388011201424</title>
<polygon fill="none" stroke="#000000" points="361,-1411.5 361,-1457.5 733,-1457.5 733,-1411.5 361,-1411.5"/>
<text text-anchor="middle" x="440.5" y="-1430.8" font-family="Times,serif" font-size="14.00" fill="#000000">input_1: InputLayer</text>
<polyline fill="none" stroke="#000000" points="520,-1411.5 520,-1457.5 "/>
<text text-anchor="middle" x="554.5" y="-1442.3" font-family="Times,serif" font-size="14.00" fill="#000000">input:</text>
<polyline fill="none" stroke="#000000" points="520,-1434.5 589,-1434.5 "/>
<text text-anchor="middle" x="554.5" y="-1419.3" font-family="Times,serif" font-size="14.00" fill="#000000">output:</text>
<polyline fill="none" stroke="#000000" points="589,-1411.5 589,-1457.5 "/>
<text text-anchor="middle" x="661" y="-1442.3" font-family="Times,serif" font-size="14.00" fill="#000000">(None, 20, 60, 3)</text>
<polyline fill="none" stroke="#000000" points="589,-1434.5 733,-1434.5 "/>
<text text-anchor="middle" x="661" y="-1419.3" font-family="Times,serif" font-size="14.00" fill="#000000">(None, 20, 60, 3)</text>
</g>
<!-- 140387881703408 -->
<g id="node2" class="node">
<title>140387881703408</title>
<polygon fill="none" stroke="#000000" points="353,-1328.5 353,-1374.5 741,-1374.5 741,-1328.5 353,-1328.5"/>
<text text-anchor="middle" x="436.5" y="-1347.8" font-family="Times,serif" font-size="14.00" fill="#000000">block1_conv1: Conv2D</text>
<polyline fill="none" stroke="#000000" points="520,-1328.5 520,-1374.5 "/>
<text text-anchor="middle" x="554.5" y="-1359.3" font-family="Times,serif" font-size="14.00" fill="#000000">input:</text>
<polyline fill="none" stroke="#000000" points="520,-1351.5 589,-1351.5 "/>
<text text-anchor="middle" x="554.5" y="-1336.3" font-family="Times,serif" font-size="14.00" fill="#000000">output:</text>
<polyline fill="none" stroke="#000000" points="589,-1328.5 589,-1374.5 "/>
<text text-anchor="middle" x="665" y="-1359.3" font-family="Times,serif" font-size="14.00" fill="#000000">(None, 20, 60, 3)</text>
<polyline fill="none" stroke="#000000" points="589,-1351.5 741,-1351.5 "/>
<text text-anchor="middle" x="665" y="-1336.3" font-family="Times,serif" font-size="14.00" fill="#000000">(None, 20, 60, 64)</text>
</g>
<!-- 140388011201424&#45;&gt;140387881703408 -->
<g id="edge1" class="edge">
<title>140388011201424&#45;&gt;140387881703408</title>
<path fill="none" stroke="#000000" d="M547,-1411.3799C547,-1403.1745 547,-1393.7679 547,-1384.8786"/>
<polygon fill="#000000" stroke="#000000" points="550.5001,-1384.784 547,-1374.784 543.5001,-1384.784 550.5001,-1384.784"/>
</g>
<!-- 140387543187184 -->
<g id="node3" class="node">
<title>140387543187184</title>
<polygon fill="none" stroke="#000000" points="353,-1245.5 353,-1291.5 741,-1291.5 741,-1245.5 353,-1245.5"/>
<text text-anchor="middle" x="436.5" y="-1264.8" font-family="Times,serif" font-size="14.00" fill="#000000">block1_conv2: Conv2D</text>
<polyline fill="none" stroke="#000000" points="520,-1245.5 520,-1291.5 "/>
<text text-anchor="middle" x="554.5" y="-1276.3" font-family="Times,serif" font-size="14.00" fill="#000000">input:</text>
<polyline fill="none" stroke="#000000" points="520,-1268.5 589,-1268.5 "/>
<text text-anchor="middle" x="554.5" y="-1253.3" font-family="Times,serif" font-size="14.00" fill="#000000">output:</text>
<polyline fill="none" stroke="#000000" points="589,-1245.5 589,-1291.5 "/>
<text text-anchor="middle" x="665" y="-1276.3" font-family="Times,serif" font-size="14.00" fill="#000000">(None, 20, 60, 64)</text>
<polyline fill="none" stroke="#000000" points="589,-1268.5 741,-1268.5 "/>
<text text-anchor="middle" x="665" y="-1253.3" font-family="Times,serif" font-size="14.00" fill="#000000">(None, 20, 60, 64)</text>
</g>
<!-- 140387881703408&#45;&gt;140387543187184 -->
<g id="edge2" class="edge">
<title>140387881703408&#45;&gt;140387543187184</title>
<path fill="none" stroke="#000000" d="M547,-1328.3799C547,-1320.1745 547,-1310.7679 547,-1301.8786"/>
<polygon fill="#000000" stroke="#000000" points="550.5001,-1301.784 547,-1291.784 543.5001,-1301.784 550.5001,-1301.784"/>
</g>
<!-- 140387543302040 -->
<g id="node4" class="node">
<title>140387543302040</title>
<polygon fill="none" stroke="#000000" points="334.5,-1162.5 334.5,-1208.5 759.5,-1208.5 759.5,-1162.5 334.5,-1162.5"/>
<text text-anchor="middle" x="436.5" y="-1181.8" font-family="Times,serif" font-size="14.00" fill="#000000">block1_pool: MaxPooling2D</text>
<polyline fill="none" stroke="#000000" points="538.5,-1162.5 538.5,-1208.5 "/>
<text text-anchor="middle" x="573" y="-1193.3" font-family="Times,serif" font-size="14.00" fill="#000000">input:</text>
<polyline fill="none" stroke="#000000" points="538.5,-1185.5 607.5,-1185.5 "/>
<text text-anchor="middle" x="573" y="-1170.3" font-family="Times,serif" font-size="14.00" fill="#000000">output:</text>
<polyline fill="none" stroke="#000000" points="607.5,-1162.5 607.5,-1208.5 "/>
<text text-anchor="middle" x="683.5" y="-1193.3" font-family="Times,serif" font-size="14.00" fill="#000000">(None, 20, 60, 64)</text>
<polyline fill="none" stroke="#000000" points="607.5,-1185.5 759.5,-1185.5 "/>
<text text-anchor="middle" x="683.5" y="-1170.3" font-family="Times,serif" font-size="14.00" fill="#000000">(None, 10, 30, 64)</text>
</g>
<!-- 140387543187184&#45;&gt;140387543302040 -->
<g id="edge3" class="edge">
<title>140387543187184&#45;&gt;140387543302040</title>
<path fill="none" stroke="#000000" d="M547,-1245.3799C547,-1237.1745 547,-1227.7679 547,-1218.8786"/>
<polygon fill="#000000" stroke="#000000" points="550.5001,-1218.784 547,-1208.784 543.5001,-1218.784 550.5001,-1218.784"/>
</g>
<!-- 140387542931832 -->
<g id="node5" class="node">
<title>140387542931832</title>
<polygon fill="none" stroke="#000000" points="349.5,-1079.5 349.5,-1125.5 744.5,-1125.5 744.5,-1079.5 349.5,-1079.5"/>
<text text-anchor="middle" x="433" y="-1098.8" font-family="Times,serif" font-size="14.00" fill="#000000">block2_conv1: Conv2D</text>
<polyline fill="none" stroke="#000000" points="516.5,-1079.5 516.5,-1125.5 "/>
<text text-anchor="middle" x="551" y="-1110.3" font-family="Times,serif" font-size="14.00" fill="#000000">input:</text>
<polyline fill="none" stroke="#000000" points="516.5,-1102.5 585.5,-1102.5 "/>
<text text-anchor="middle" x="551" y="-1087.3" font-family="Times,serif" font-size="14.00" fill="#000000">output:</text>
<polyline fill="none" stroke="#000000" points="585.5,-1079.5 585.5,-1125.5 "/>
<text text-anchor="middle" x="665" y="-1110.3" font-family="Times,serif" font-size="14.00" fill="#000000">(None, 10, 30, 64)</text>
<polyline fill="none" stroke="#000000" points="585.5,-1102.5 744.5,-1102.5 "/>
<text text-anchor="middle" x="665" y="-1087.3" font-family="Times,serif" font-size="14.00" fill="#000000">(None, 10, 30, 128)</text>
</g>
<!-- 140387543302040&#45;&gt;140387542931832 -->
<g id="edge4" class="edge">
<title>140387543302040&#45;&gt;140387542931832</title>
<path fill="none" stroke="#000000" d="M547,-1162.3799C547,-1154.1745 547,-1144.7679 547,-1135.8786"/>
<polygon fill="#000000" stroke="#000000" points="550.5001,-1135.784 547,-1125.784 543.5001,-1135.784 550.5001,-1135.784"/>
</g>
<!-- 140387542977784 -->
<g id="node6" class="node">
<title>140387542977784</title>
<polygon fill="none" stroke="#000000" points="349.5,-996.5 349.5,-1042.5 744.5,-1042.5 744.5,-996.5 349.5,-996.5"/>
<text text-anchor="middle" x="433" y="-1015.8" font-family="Times,serif" font-size="14.00" fill="#000000">block2_conv2: Conv2D</text>
<polyline fill="none" stroke="#000000" points="516.5,-996.5 516.5,-1042.5 "/>
<text text-anchor="middle" x="551" y="-1027.3" font-family="Times,serif" font-size="14.00" fill="#000000">input:</text>
<polyline fill="none" stroke="#000000" points="516.5,-1019.5 585.5,-1019.5 "/>
<text text-anchor="middle" x="551" y="-1004.3" font-family="Times,serif" font-size="14.00" fill="#000000">output:</text>
<polyline fill="none" stroke="#000000" points="585.5,-996.5 585.5,-1042.5 "/>
<text text-anchor="middle" x="665" y="-1027.3" font-family="Times,serif" font-size="14.00" fill="#000000">(None, 10, 30, 128)</text>
<polyline fill="none" stroke="#000000" points="585.5,-1019.5 744.5,-1019.5 "/>
<text text-anchor="middle" x="665" y="-1004.3" font-family="Times,serif" font-size="14.00" fill="#000000">(None, 10, 30, 128)</text>
</g>
<!-- 140387542931832&#45;&gt;140387542977784 -->
<g id="edge5" class="edge">
<title>140387542931832&#45;&gt;140387542977784</title>
<path fill="none" stroke="#000000" d="M547,-1079.3799C547,-1071.1745 547,-1061.7679 547,-1052.8786"/>
<polygon fill="#000000" stroke="#000000" points="550.5001,-1052.784 547,-1042.784 543.5001,-1052.784 550.5001,-1052.784"/>
</g>
<!-- 140387543031760 -->
<g id="node7" class="node">
<title>140387543031760</title>
<polygon fill="none" stroke="#000000" points="331,-913.5 331,-959.5 763,-959.5 763,-913.5 331,-913.5"/>
<text text-anchor="middle" x="433" y="-932.8" font-family="Times,serif" font-size="14.00" fill="#000000">block2_pool: MaxPooling2D</text>
<polyline fill="none" stroke="#000000" points="535,-913.5 535,-959.5 "/>
<text text-anchor="middle" x="569.5" y="-944.3" font-family="Times,serif" font-size="14.00" fill="#000000">input:</text>
<polyline fill="none" stroke="#000000" points="535,-936.5 604,-936.5 "/>
<text text-anchor="middle" x="569.5" y="-921.3" font-family="Times,serif" font-size="14.00" fill="#000000">output:</text>
<polyline fill="none" stroke="#000000" points="604,-913.5 604,-959.5 "/>
<text text-anchor="middle" x="683.5" y="-944.3" font-family="Times,serif" font-size="14.00" fill="#000000">(None, 10, 30, 128)</text>
<polyline fill="none" stroke="#000000" points="604,-936.5 763,-936.5 "/>
<text text-anchor="middle" x="683.5" y="-921.3" font-family="Times,serif" font-size="14.00" fill="#000000">(None, 5, 15, 128)</text>
</g>
<!-- 140387542977784&#45;&gt;140387543031760 -->
<g id="edge6" class="edge">
<title>140387542977784&#45;&gt;140387543031760</title>
<path fill="none" stroke="#000000" d="M547,-996.3799C547,-988.1745 547,-978.7679 547,-969.8786"/>
<polygon fill="#000000" stroke="#000000" points="550.5001,-969.784 547,-959.784 543.5001,-969.784 550.5001,-969.784"/>
</g>
<!-- 140387543126424 -->
<g id="node8" class="node">
<title>140387543126424</title>
<polygon fill="none" stroke="#000000" points="353,-830.5 353,-876.5 741,-876.5 741,-830.5 353,-830.5"/>
<text text-anchor="middle" x="436.5" y="-849.8" font-family="Times,serif" font-size="14.00" fill="#000000">block3_conv1: Conv2D</text>
<polyline fill="none" stroke="#000000" points="520,-830.5 520,-876.5 "/>
<text text-anchor="middle" x="554.5" y="-861.3" font-family="Times,serif" font-size="14.00" fill="#000000">input:</text>
<polyline fill="none" stroke="#000000" points="520,-853.5 589,-853.5 "/>
<text text-anchor="middle" x="554.5" y="-838.3" font-family="Times,serif" font-size="14.00" fill="#000000">output:</text>
<polyline fill="none" stroke="#000000" points="589,-830.5 589,-876.5 "/>
<text text-anchor="middle" x="665" y="-861.3" font-family="Times,serif" font-size="14.00" fill="#000000">(None, 5, 15, 128)</text>
<polyline fill="none" stroke="#000000" points="589,-853.5 741,-853.5 "/>
<text text-anchor="middle" x="665" y="-838.3" font-family="Times,serif" font-size="14.00" fill="#000000">(None, 5, 15, 256)</text>
</g>
<!-- 140387543031760&#45;&gt;140387543126424 -->
<g id="edge7" class="edge">
<title>140387543031760&#45;&gt;140387543126424</title>
<path fill="none" stroke="#000000" d="M547,-913.3799C547,-905.1745 547,-895.7679 547,-886.8786"/>
<polygon fill="#000000" stroke="#000000" points="550.5001,-886.784 547,-876.784 543.5001,-886.784 550.5001,-886.784"/>
</g>
<!-- 140387542661496 -->
<g id="node9" class="node">
<title>140387542661496</title>
<polygon fill="none" stroke="#000000" points="353,-747.5 353,-793.5 741,-793.5 741,-747.5 353,-747.5"/>
<text text-anchor="middle" x="436.5" y="-766.8" font-family="Times,serif" font-size="14.00" fill="#000000">block3_conv2: Conv2D</text>
<polyline fill="none" stroke="#000000" points="520,-747.5 520,-793.5 "/>
<text text-anchor="middle" x="554.5" y="-778.3" font-family="Times,serif" font-size="14.00" fill="#000000">input:</text>
<polyline fill="none" stroke="#000000" points="520,-770.5 589,-770.5 "/>
<text text-anchor="middle" x="554.5" y="-755.3" font-family="Times,serif" font-size="14.00" fill="#000000">output:</text>
<polyline fill="none" stroke="#000000" points="589,-747.5 589,-793.5 "/>
<text text-anchor="middle" x="665" y="-778.3" font-family="Times,serif" font-size="14.00" fill="#000000">(None, 5, 15, 256)</text>
<polyline fill="none" stroke="#000000" points="589,-770.5 741,-770.5 "/>
<text text-anchor="middle" x="665" y="-755.3" font-family="Times,serif" font-size="14.00" fill="#000000">(None, 5, 15, 256)</text>
</g>
<!-- 140387543126424&#45;&gt;140387542661496 -->
<g id="edge8" class="edge">
<title>140387543126424&#45;&gt;140387542661496</title>
<path fill="none" stroke="#000000" d="M547,-830.3799C547,-822.1745 547,-812.7679 547,-803.8786"/>
<polygon fill="#000000" stroke="#000000" points="550.5001,-803.784 547,-793.784 543.5001,-803.784 550.5001,-803.784"/>
</g>
<!-- 140387542703184 -->
<g id="node10" class="node">
<title>140387542703184</title>
<polygon fill="none" stroke="#000000" points="353,-664.5 353,-710.5 741,-710.5 741,-664.5 353,-664.5"/>
<text text-anchor="middle" x="436.5" y="-683.8" font-family="Times,serif" font-size="14.00" fill="#000000">block3_conv3: Conv2D</text>
<polyline fill="none" stroke="#000000" points="520,-664.5 520,-710.5 "/>
<text text-anchor="middle" x="554.5" y="-695.3" font-family="Times,serif" font-size="14.00" fill="#000000">input:</text>
<polyline fill="none" stroke="#000000" points="520,-687.5 589,-687.5 "/>
<text text-anchor="middle" x="554.5" y="-672.3" font-family="Times,serif" font-size="14.00" fill="#000000">output:</text>
<polyline fill="none" stroke="#000000" points="589,-664.5 589,-710.5 "/>
<text text-anchor="middle" x="665" y="-695.3" font-family="Times,serif" font-size="14.00" fill="#000000">(None, 5, 15, 256)</text>
<polyline fill="none" stroke="#000000" points="589,-687.5 741,-687.5 "/>
<text text-anchor="middle" x="665" y="-672.3" font-family="Times,serif" font-size="14.00" fill="#000000">(None, 5, 15, 256)</text>
</g>
<!-- 140387542661496&#45;&gt;140387542703184 -->
<g id="edge9" class="edge">
<title>140387542661496&#45;&gt;140387542703184</title>
<path fill="none" stroke="#000000" d="M547,-747.3799C547,-739.1745 547,-729.7679 547,-720.8786"/>
<polygon fill="#000000" stroke="#000000" points="550.5001,-720.784 547,-710.784 543.5001,-720.784 550.5001,-720.784"/>
</g>
<!-- 140387542810296 -->
<g id="node11" class="node">
<title>140387542810296</title>
<polygon fill="none" stroke="#000000" points="334.5,-581.5 334.5,-627.5 759.5,-627.5 759.5,-581.5 334.5,-581.5"/>
<text text-anchor="middle" x="436.5" y="-600.8" font-family="Times,serif" font-size="14.00" fill="#000000">block3_pool: MaxPooling2D</text>
<polyline fill="none" stroke="#000000" points="538.5,-581.5 538.5,-627.5 "/>
<text text-anchor="middle" x="573" y="-612.3" font-family="Times,serif" font-size="14.00" fill="#000000">input:</text>
<polyline fill="none" stroke="#000000" points="538.5,-604.5 607.5,-604.5 "/>
<text text-anchor="middle" x="573" y="-589.3" font-family="Times,serif" font-size="14.00" fill="#000000">output:</text>
<polyline fill="none" stroke="#000000" points="607.5,-581.5 607.5,-627.5 "/>
<text text-anchor="middle" x="683.5" y="-612.3" font-family="Times,serif" font-size="14.00" fill="#000000">(None, 5, 15, 256)</text>
<polyline fill="none" stroke="#000000" points="607.5,-604.5 759.5,-604.5 "/>
<text text-anchor="middle" x="683.5" y="-589.3" font-family="Times,serif" font-size="14.00" fill="#000000">(None, 2, 7, 256)</text>
</g>
<!-- 140387542703184&#45;&gt;140387542810296 -->
<g id="edge10" class="edge">
<title>140387542703184&#45;&gt;140387542810296</title>
<path fill="none" stroke="#000000" d="M547,-664.3799C547,-656.1745 547,-646.7679 547,-637.8786"/>
<polygon fill="#000000" stroke="#000000" points="550.5001,-637.784 547,-627.784 543.5001,-637.784 550.5001,-637.784"/>
</g>
<!-- 140387542853840 -->
<g id="node12" class="node">
<title>140387542853840</title>
<polygon fill="none" stroke="#000000" points="357,-498.5 357,-544.5 737,-544.5 737,-498.5 357,-498.5"/>
<text text-anchor="middle" x="440.5" y="-517.8" font-family="Times,serif" font-size="14.00" fill="#000000">block4_conv1: Conv2D</text>
<polyline fill="none" stroke="#000000" points="524,-498.5 524,-544.5 "/>
<text text-anchor="middle" x="558.5" y="-529.3" font-family="Times,serif" font-size="14.00" fill="#000000">input:</text>
<polyline fill="none" stroke="#000000" points="524,-521.5 593,-521.5 "/>
<text text-anchor="middle" x="558.5" y="-506.3" font-family="Times,serif" font-size="14.00" fill="#000000">output:</text>
<polyline fill="none" stroke="#000000" points="593,-498.5 593,-544.5 "/>
<text text-anchor="middle" x="665" y="-529.3" font-family="Times,serif" font-size="14.00" fill="#000000">(None, 2, 7, 256)</text>
<polyline fill="none" stroke="#000000" points="593,-521.5 737,-521.5 "/>
<text text-anchor="middle" x="665" y="-506.3" font-family="Times,serif" font-size="14.00" fill="#000000">(None, 2, 7, 512)</text>
</g>
<!-- 140387542810296&#45;&gt;140387542853840 -->
<g id="edge11" class="edge">
<title>140387542810296&#45;&gt;140387542853840</title>
<path fill="none" stroke="#000000" d="M547,-581.3799C547,-573.1745 547,-563.7679 547,-554.8786"/>
<polygon fill="#000000" stroke="#000000" points="550.5001,-554.784 547,-544.784 543.5001,-554.784 550.5001,-554.784"/>
</g>
<!-- 140387542375840 -->
<g id="node13" class="node">
<title>140387542375840</title>
<polygon fill="none" stroke="#000000" points="357,-415.5 357,-461.5 737,-461.5 737,-415.5 357,-415.5"/>
<text text-anchor="middle" x="440.5" y="-434.8" font-family="Times,serif" font-size="14.00" fill="#000000">block4_conv2: Conv2D</text>
<polyline fill="none" stroke="#000000" points="524,-415.5 524,-461.5 "/>
<text text-anchor="middle" x="558.5" y="-446.3" font-family="Times,serif" font-size="14.00" fill="#000000">input:</text>
<polyline fill="none" stroke="#000000" points="524,-438.5 593,-438.5 "/>
<text text-anchor="middle" x="558.5" y="-423.3" font-family="Times,serif" font-size="14.00" fill="#000000">output:</text>
<polyline fill="none" stroke="#000000" points="593,-415.5 593,-461.5 "/>
<text text-anchor="middle" x="665" y="-446.3" font-family="Times,serif" font-size="14.00" fill="#000000">(None, 2, 7, 512)</text>
<polyline fill="none" stroke="#000000" points="593,-438.5 737,-438.5 "/>
<text text-anchor="middle" x="665" y="-423.3" font-family="Times,serif" font-size="14.00" fill="#000000">(None, 2, 7, 512)</text>
</g>
<!-- 140387542853840&#45;&gt;140387542375840 -->
<g id="edge12" class="edge">
<title>140387542853840&#45;&gt;140387542375840</title>
<path fill="none" stroke="#000000" d="M547,-498.3799C547,-490.1745 547,-480.7679 547,-471.8786"/>
<polygon fill="#000000" stroke="#000000" points="550.5001,-471.784 547,-461.784 543.5001,-471.784 550.5001,-471.784"/>
</g>
<!-- 140387542473920 -->
<g id="node14" class="node">
<title>140387542473920</title>
<polygon fill="none" stroke="#000000" points="357,-332.5 357,-378.5 737,-378.5 737,-332.5 357,-332.5"/>
<text text-anchor="middle" x="440.5" y="-351.8" font-family="Times,serif" font-size="14.00" fill="#000000">block4_conv3: Conv2D</text>
<polyline fill="none" stroke="#000000" points="524,-332.5 524,-378.5 "/>
<text text-anchor="middle" x="558.5" y="-363.3" font-family="Times,serif" font-size="14.00" fill="#000000">input:</text>
<polyline fill="none" stroke="#000000" points="524,-355.5 593,-355.5 "/>
<text text-anchor="middle" x="558.5" y="-340.3" font-family="Times,serif" font-size="14.00" fill="#000000">output:</text>
<polyline fill="none" stroke="#000000" points="593,-332.5 593,-378.5 "/>
<text text-anchor="middle" x="665" y="-363.3" font-family="Times,serif" font-size="14.00" fill="#000000">(None, 2, 7, 512)</text>
<polyline fill="none" stroke="#000000" points="593,-355.5 737,-355.5 "/>
<text text-anchor="middle" x="665" y="-340.3" font-family="Times,serif" font-size="14.00" fill="#000000">(None, 2, 7, 512)</text>
</g>
<!-- 140387542375840&#45;&gt;140387542473920 -->
<g id="edge13" class="edge">
<title>140387542375840&#45;&gt;140387542473920</title>
<path fill="none" stroke="#000000" d="M547,-415.3799C547,-407.1745 547,-397.7679 547,-388.8786"/>
<polygon fill="#000000" stroke="#000000" points="550.5001,-388.784 547,-378.784 543.5001,-388.784 550.5001,-388.784"/>
</g>
<!-- 140387542521280 -->
<g id="node15" class="node">
<title>140387542521280</title>
<polygon fill="none" stroke="#000000" points="338.5,-249.5 338.5,-295.5 755.5,-295.5 755.5,-249.5 338.5,-249.5"/>
<text text-anchor="middle" x="440.5" y="-268.8" font-family="Times,serif" font-size="14.00" fill="#000000">block4_pool: MaxPooling2D</text>
<polyline fill="none" stroke="#000000" points="542.5,-249.5 542.5,-295.5 "/>
<text text-anchor="middle" x="577" y="-280.3" font-family="Times,serif" font-size="14.00" fill="#000000">input:</text>
<polyline fill="none" stroke="#000000" points="542.5,-272.5 611.5,-272.5 "/>
<text text-anchor="middle" x="577" y="-257.3" font-family="Times,serif" font-size="14.00" fill="#000000">output:</text>
<polyline fill="none" stroke="#000000" points="611.5,-249.5 611.5,-295.5 "/>
<text text-anchor="middle" x="683.5" y="-280.3" font-family="Times,serif" font-size="14.00" fill="#000000">(None, 2, 7, 512)</text>
<polyline fill="none" stroke="#000000" points="611.5,-272.5 755.5,-272.5 "/>
<text text-anchor="middle" x="683.5" y="-257.3" font-family="Times,serif" font-size="14.00" fill="#000000">(None, 1, 3, 512)</text>
</g>
<!-- 140387542473920&#45;&gt;140387542521280 -->
<g id="edge14" class="edge">
<title>140387542473920&#45;&gt;140387542521280</title>
<path fill="none" stroke="#000000" d="M547,-332.3799C547,-324.1745 547,-314.7679 547,-305.8786"/>
<polygon fill="#000000" stroke="#000000" points="550.5001,-305.784 547,-295.784 543.5001,-305.784 550.5001,-305.784"/>
</g>
<!-- 140387542612120 -->
<g id="node16" class="node">
<title>140387542612120</title>
<polygon fill="none" stroke="#000000" points="364.5,-166.5 364.5,-212.5 729.5,-212.5 729.5,-166.5 364.5,-166.5"/>
<text text-anchor="middle" x="440.5" y="-185.8" font-family="Times,serif" font-size="14.00" fill="#000000">flatten_1: Flatten</text>
<polyline fill="none" stroke="#000000" points="516.5,-166.5 516.5,-212.5 "/>
<text text-anchor="middle" x="551" y="-197.3" font-family="Times,serif" font-size="14.00" fill="#000000">input:</text>
<polyline fill="none" stroke="#000000" points="516.5,-189.5 585.5,-189.5 "/>
<text text-anchor="middle" x="551" y="-174.3" font-family="Times,serif" font-size="14.00" fill="#000000">output:</text>
<polyline fill="none" stroke="#000000" points="585.5,-166.5 585.5,-212.5 "/>
<text text-anchor="middle" x="657.5" y="-197.3" font-family="Times,serif" font-size="14.00" fill="#000000">(None, 1, 3, 512)</text>
<polyline fill="none" stroke="#000000" points="585.5,-189.5 729.5,-189.5 "/>
<text text-anchor="middle" x="657.5" y="-174.3" font-family="Times,serif" font-size="14.00" fill="#000000">(None, 1536)</text>
</g>
<!-- 140387542521280&#45;&gt;140387542612120 -->
<g id="edge15" class="edge">
<title>140387542521280&#45;&gt;140387542612120</title>
<path fill="none" stroke="#000000" d="M547,-249.3799C547,-241.1745 547,-231.7679 547,-222.8786"/>
<polygon fill="#000000" stroke="#000000" points="550.5001,-222.784 547,-212.784 543.5001,-222.784 550.5001,-222.784"/>
</g>
<!-- 140387542613072 -->
<g id="node17" class="node">
<title>140387542613072</title>
<polygon fill="none" stroke="#000000" points="383,-83.5 383,-129.5 711,-129.5 711,-83.5 383,-83.5"/>
<text text-anchor="middle" x="459" y="-102.8" font-family="Times,serif" font-size="14.00" fill="#000000">dropout_1: Dropout</text>
<polyline fill="none" stroke="#000000" points="535,-83.5 535,-129.5 "/>
<text text-anchor="middle" x="569.5" y="-114.3" font-family="Times,serif" font-size="14.00" fill="#000000">input:</text>
<polyline fill="none" stroke="#000000" points="535,-106.5 604,-106.5 "/>
<text text-anchor="middle" x="569.5" y="-91.3" font-family="Times,serif" font-size="14.00" fill="#000000">output:</text>
<polyline fill="none" stroke="#000000" points="604,-83.5 604,-129.5 "/>
<text text-anchor="middle" x="657.5" y="-114.3" font-family="Times,serif" font-size="14.00" fill="#000000">(None, 1536)</text>
<polyline fill="none" stroke="#000000" points="604,-106.5 711,-106.5 "/>
<text text-anchor="middle" x="657.5" y="-91.3" font-family="Times,serif" font-size="14.00" fill="#000000">(None, 1536)</text>
</g>
<!-- 140387542612120&#45;&gt;140387542613072 -->
<g id="edge16" class="edge">
<title>140387542612120&#45;&gt;140387542613072</title>
<path fill="none" stroke="#000000" d="M547,-166.3799C547,-158.1745 547,-148.7679 547,-139.8786"/>
<polygon fill="#000000" stroke="#000000" points="550.5001,-139.784 547,-129.784 543.5001,-139.784 550.5001,-139.784"/>
</g>
<!-- 140387542131712 -->
<g id="node18" class="node">
<title>140387542131712</title>
<polygon fill="none" stroke="#000000" points="0,-.5 0,-46.5 260,-46.5 260,-.5 0,-.5"/>
<text text-anchor="middle" x="42" y="-19.8" font-family="Times,serif" font-size="14.00" fill="#000000">c1: Dense</text>
<polyline fill="none" stroke="#000000" points="84,-.5 84,-46.5 "/>
<text text-anchor="middle" x="118.5" y="-31.3" font-family="Times,serif" font-size="14.00" fill="#000000">input:</text>
<polyline fill="none" stroke="#000000" points="84,-23.5 153,-23.5 "/>
<text text-anchor="middle" x="118.5" y="-8.3" font-family="Times,serif" font-size="14.00" fill="#000000">output:</text>
<polyline fill="none" stroke="#000000" points="153,-.5 153,-46.5 "/>
<text text-anchor="middle" x="206.5" y="-31.3" font-family="Times,serif" font-size="14.00" fill="#000000">(None, 1536)</text>
<polyline fill="none" stroke="#000000" points="153,-23.5 260,-23.5 "/>
<text text-anchor="middle" x="206.5" y="-8.3" font-family="Times,serif" font-size="14.00" fill="#000000">(None, 62)</text>
</g>
<!-- 140387542613072&#45;&gt;140387542131712 -->
<g id="edge17" class="edge">
<title>140387542613072&#45;&gt;140387542131712</title>
<path fill="none" stroke="#000000" d="M431.396,-83.4901C376.8246,-72.6282 311.581,-59.642 255.7745,-48.5343"/>
<polygon fill="#000000" stroke="#000000" points="256.3197,-45.0742 245.8289,-46.5547 254.9532,-51.9395 256.3197,-45.0742"/>
</g>
<!-- 140387542257280 -->
<g id="node19" class="node">
<title>140387542257280</title>
<polygon fill="none" stroke="#000000" points="278,-.5 278,-46.5 538,-46.5 538,-.5 278,-.5"/>
<text text-anchor="middle" x="320" y="-19.8" font-family="Times,serif" font-size="14.00" fill="#000000">c2: Dense</text>
<polyline fill="none" stroke="#000000" points="362,-.5 362,-46.5 "/>
<text text-anchor="middle" x="396.5" y="-31.3" font-family="Times,serif" font-size="14.00" fill="#000000">input:</text>
<polyline fill="none" stroke="#000000" points="362,-23.5 431,-23.5 "/>
<text text-anchor="middle" x="396.5" y="-8.3" font-family="Times,serif" font-size="14.00" fill="#000000">output:</text>
<polyline fill="none" stroke="#000000" points="431,-.5 431,-46.5 "/>
<text text-anchor="middle" x="484.5" y="-31.3" font-family="Times,serif" font-size="14.00" fill="#000000">(None, 1536)</text>
<polyline fill="none" stroke="#000000" points="431,-23.5 538,-23.5 "/>
<text text-anchor="middle" x="484.5" y="-8.3" font-family="Times,serif" font-size="14.00" fill="#000000">(None, 62)</text>
</g>
<!-- 140387542613072&#45;&gt;140387542257280 -->
<g id="edge18" class="edge">
<title>140387542613072&#45;&gt;140387542257280</title>
<path fill="none" stroke="#000000" d="M508.2808,-83.3799C492.0001,-73.6583 472.8954,-62.2505 455.7535,-52.0147"/>
<polygon fill="#000000" stroke="#000000" points="457.3739,-48.9058 446.9937,-46.784 453.7851,-54.9159 457.3739,-48.9058"/>
</g>
<!-- 140387541861992 -->
<g id="node20" class="node">
<title>140387541861992</title>
<polygon fill="none" stroke="#000000" points="556,-.5 556,-46.5 816,-46.5 816,-.5 556,-.5"/>
<text text-anchor="middle" x="598" y="-19.8" font-family="Times,serif" font-size="14.00" fill="#000000">c3: Dense</text>
<polyline fill="none" stroke="#000000" points="640,-.5 640,-46.5 "/>
<text text-anchor="middle" x="674.5" y="-31.3" font-family="Times,serif" font-size="14.00" fill="#000000">input:</text>
<polyline fill="none" stroke="#000000" points="640,-23.5 709,-23.5 "/>
<text text-anchor="middle" x="674.5" y="-8.3" font-family="Times,serif" font-size="14.00" fill="#000000">output:</text>
<polyline fill="none" stroke="#000000" points="709,-.5 709,-46.5 "/>
<text text-anchor="middle" x="762.5" y="-31.3" font-family="Times,serif" font-size="14.00" fill="#000000">(None, 1536)</text>
<polyline fill="none" stroke="#000000" points="709,-23.5 816,-23.5 "/>
<text text-anchor="middle" x="762.5" y="-8.3" font-family="Times,serif" font-size="14.00" fill="#000000">(None, 62)</text>
</g>
<!-- 140387542613072&#45;&gt;140387541861992 -->
<g id="edge19" class="edge">
<title>140387542613072&#45;&gt;140387541861992</title>
<path fill="none" stroke="#000000" d="M585.7192,-83.3799C601.9999,-73.6583 621.1046,-62.2505 638.2465,-52.0147"/>
<polygon fill="#000000" stroke="#000000" points="640.2149,-54.9159 647.0063,-46.784 636.6261,-48.9058 640.2149,-54.9159"/>
</g>
<!-- 140387541900424 -->
<g id="node21" class="node">
<title>140387541900424</title>
<polygon fill="none" stroke="#000000" points="834,-.5 834,-46.5 1094,-46.5 1094,-.5 834,-.5"/>
<text text-anchor="middle" x="876" y="-19.8" font-family="Times,serif" font-size="14.00" fill="#000000">c4: Dense</text>
<polyline fill="none" stroke="#000000" points="918,-.5 918,-46.5 "/>
<text text-anchor="middle" x="952.5" y="-31.3" font-family="Times,serif" font-size="14.00" fill="#000000">input:</text>
<polyline fill="none" stroke="#000000" points="918,-23.5 987,-23.5 "/>
<text text-anchor="middle" x="952.5" y="-8.3" font-family="Times,serif" font-size="14.00" fill="#000000">output:</text>
<polyline fill="none" stroke="#000000" points="987,-.5 987,-46.5 "/>
<text text-anchor="middle" x="1040.5" y="-31.3" font-family="Times,serif" font-size="14.00" fill="#000000">(None, 1536)</text>
<polyline fill="none" stroke="#000000" points="987,-23.5 1094,-23.5 "/>
<text text-anchor="middle" x="1040.5" y="-8.3" font-family="Times,serif" font-size="14.00" fill="#000000">(None, 62)</text>
</g>
<!-- 140387542613072&#45;&gt;140387541900424 -->
<g id="edge20" class="edge">
<title>140387542613072&#45;&gt;140387541900424</title>
<path fill="none" stroke="#000000" d="M662.604,-83.4901C717.1754,-72.6282 782.419,-59.642 838.2255,-48.5343"/>
<polygon fill="#000000" stroke="#000000" points="839.0468,-51.9395 848.1711,-46.5547 837.6803,-45.0742 839.0468,-51.9395"/>
</g>
</g>
</svg>
